<svg xmlns="http://www.w3.org/2000/svg" viewBox="0 0 64 64" role="img" aria-label="ER">
  <defs>
    <linearGradient id="field" x1="8" y1="6" x2="56" y2="58" gradientUnits="userSpaceOnUse">
      <stop offset="0" stop-color="#151521"/>
      <stop offset="0.46" stop-color="#050507"/>
      <stop offset="1" stop-color="#101014"/>
    </linearGradient>
    <linearGradient id="stroke" x1="9" y1="11" x2="56" y2="52" gradientUnits="userSpaceOnUse">
      <stop offset="0" stop-color="#f5f5f7"/>
      <stop offset="0.36" stop-color="#0a84ff"/>
      <stop offset="0.7" stop-color="#5e5ce6"/>
      <stop offset="1" stop-color="#ff9f0a"/>
    </linearGradient>
    <linearGradient id="spark" x1="17" y1="48" x2="49" y2="16" gradientUnits="userSpaceOnUse">
      <stop offset="0" stop-color="#ff9f0a"/>
      <stop offset="0.48" stop-color="#f5f5f7"/>
      <stop offset="1" stop-color="#0a84ff"/>
    </linearGradient>
    <filter id="lift" x="-12%" y="-12%" width="124%" height="124%">
      <feDropShadow dx="0" dy="4" stdDeviation="4" flood-color="#000" flood-opacity="0.45"/>
    </filter>
  </defs>

  <rect width="64" height="64" rx="15" fill="url(#field)"/>
  <path
    d="M14 50V14h20c8.1 0 13.3 4.5 13.3 11.4 0 4.6-2.3 8.1-6.1 9.9L51 50H38.7l-8-12.6H25V50H14Zm11-21.9h8c2.1 0 3.4-1.1 3.4-2.9s-1.3-2.9-3.4-2.9h-8v5.8Zm0 13h11.5l-4-6.2H25v6.2Z"
    fill="#f5f5f7"
    filter="url(#lift)"
  />
  <path
    d="M14 50V14h34v9.1H25v5h20v8.7H25v4.3h23.9V50H14Z"
    fill="#f5f5f7"
    opacity="0.28"
  />
  <path
    d="M12 52.5 52.5 12"
    fill="none"
    stroke="url(#spark)"
    stroke-linecap="round"
    stroke-width="4.2"
    opacity="0.92"
  />
  <path
    d="M7.5 32c0-14 10.7-24.5 24.7-24.5 11.2 0 20 6.5 23.1 16.1"
    fill="none"
    stroke="url(#stroke)"
    stroke-linecap="round"
    stroke-width="3.2"
  />
  <path
    d="M56.4 32c0 14.1-10.7 24.5-24.7 24.5-11.2 0-20-6.5-23.1-16.1"
    fill="none"
    stroke="url(#stroke)"
    stroke-linecap="round"
    stroke-width="3.2"
    opacity="0.7"
  />
</svg>
