<svg xmlns="http://www.w3.org/2000/svg" viewBox="0 0 64 64" role="img" aria-label="E.R.">
  <defs>
    <linearGradient id="ink" x1="10" y1="13" x2="54" y2="51" gradientUnits="userSpaceOnUse">
      <stop offset="0" stop-color="#111118"/>
      <stop offset="0.58" stop-color="#111118"/>
      <stop offset="1" stop-color="#0a84ff"/>
    </linearGradient>
  </defs>

  <g fill="none" stroke="#f5f5f7" stroke-linecap="square" stroke-linejoin="miter" stroke-width="8">
    <path d="M9 13v38"/>
    <path d="M9 13h18"/>
    <path d="M9 32h15"/>
    <path d="M9 51h18"/>
    <path d="M38 13v38"/>
    <path d="M38 13h8c6 0 10 3.7 10 9.5S52 32 46 32h-8"/>
    <path d="M45 32l12 19"/>
  </g>

  <g fill="none" stroke="url(#ink)" stroke-linecap="square" stroke-linejoin="miter" stroke-width="5.2">
    <path d="M9 13v38"/>
    <path d="M9 13h18"/>
    <path d="M9 32h15"/>
    <path d="M9 51h18"/>
    <path d="M38 13v38"/>
    <path d="M38 13h8c6 0 10 3.7 10 9.5S52 32 46 32h-8"/>
    <path d="M45 32l12 19"/>
  </g>

  <g fill="#111118" stroke="#f5f5f7" stroke-width="2">
    <circle cx="31.5" cy="51" r="2.7"/>
    <circle cx="60.5" cy="51" r="2.7"/>
  </g>
</svg>
